#!OML:ASF F:\VICON\USERDATA\INSTALL\rory3\rory3.ASF
:FULLY-SPECIFIED
:DEGREES
73
root 0.09244298809769191 17.743205472583977 20.293985901246653 -3.3500013860228655 -1.0295357124919795 -1.7944044702253525
lfemur -11.336199415563842 -1.2009027446218634 -21.17141000659972
ltibia 34.14616793273872
lfoot -15.353875719169261 3.293781450601766
ltoes -5.269797311483873
rfemur -7.348510021722932 2.5896295383341243 22.775040644755766
rtibia 59.103177742848885
rfoot -15.335150658644132 -7.677044849283733
rtoes 0.6807206179643477
lowerback 10.566966535937013 1.4543544370631074 0.8236891468994312
upperback 0.42350748644094444 1.7743837192792598 0.6546235109391544
thorax -5.506388904280363 0.9805468220580122 0.13007557071163978
lowerneck -16.471075196018834 -2.9467759724614573 -1.457098306839237
upperneck 21.22673416231581 -3.8031974765079792 0.8952774029608965
head 9.57876799837904 -1.844227285101333 0.07372160809032482
lclavicle -3.6163629444909146e-16 5.803562888186004e-16
lhumerus -24.502306289598135 2.3962745441795175 79.8920635151145
lradius 27.10990945702009
lwrist 5.968385384851258
lhand -27.424696341206893 17.80890962723776
lfingers 7.12502
lthumb -0.8401153593053381 47.74202498048994
rclavicle -3.6163629435674193e-16 5.803562888807815e-16
rhumerus -28.392339877216962 -16.085646907849654 -79.66032725597586
rradius 32.560848419556834
rwrist 2.4231826186091174
rhand -17.82089455782856 20.75077780407209
rfingers 7.12502
rthumb 8.914400606732466 -8.139726284719321
74
root 0.12254365982418919 17.76437764895748 20.523147393957192 -3.091992222123823 -1.264470023223224 -1.6054982510557627
lfemur -9.916685344349663 -1.2608586134413673 -21.349367067464765
ltibia 33.71106640441424
lfoot -15.158401352667822 3.153858933745892
ltoes -7.069651404203551
rfemur -8.856892441671949 2.6262708445081078 22.519387673205454
rtibia 58.402741666550185
rfoot -14.67384738867376 -7.308840382835789
rtoes 0.5090072283633278
lowerback 10.411224548637088 1.214145670188961 0.49511827243167417
upperback 0.35263506539076195 1.5186361710924317 0.7032454734805469
thorax -5.564667666773044 0.8537852603960627 0.29064362663323684
lowerneck -16.48336634759939 -2.9352375455245974 -1.5018373189875363
upperneck 21.186868985580773 -3.776877828838831 0.8571185850327765
head 9.561508622158634 -1.829961521661743 0.08090797793039178
lclavicle -3.616362944510808e-16 5.803562888172224e-16
lhumerus -24.392081435578646 2.138454457603672 79.7294353971023
lradius 27.641610094384337
lwrist 6.34442607587539
lhand -27.419131391968715 17.921632634564244
lfingers 7.12502
lthumb -0.757639762045103 47.97523080351243
rclavicle -3.616362943463047e-16 5.803562888877086e-16
rhumerus -28.36320110656078 -16.060109746391532 -79.59294428067014
rradius 32.65539745926129
rwrist 2.6111652138353314
rhand -17.773159630022356 20.78988329630592
rfingers 7.12502
rthumb 9.08909134843819 -7.823655492182114
75
root 0.1473486823052444 17.762963198462078 21.01855020217188 -3.3847066977553677 -1.9728519752794598 -0.8448080156896844
lfemur -8.44983003220718 -1.1059446321392992 -22.099553167351033
ltibia 33.346190694935025
lfoot -14.818689499936713 2.686660371169187
ltoes -8.62013708651649
rfemur -10.610608505758938 2.951347351863784 21.851984360545927
rtibia 58.42046378878656
rfoot -14.07194585771313 -6.926017113661683
rtoes 4.167917941733538
lowerback 10.366831731122051 1.0998453352958695 -0.24257842126126627
upperback 0.33536763827427984 1.256385030831766 0.6848410565859433
thorax -5.58364882831238 0.7180167184048598 0.5477716861670452
lowerneck -16.416262707101467 -2.904911409121102 -1.5202094990501953
upperneck 21.33415202572892 -3.7206352137784124 0.852634547308579
head 9.578626240492289 -1.811891039532103 0.11204713634751227
lclavicle -3.616362944566345e-16 5.80356288813714e-16
lhumerus -23.587841528523345 2.6927182352955996 79.82911376473562
lradius 27.983600829156973
lwrist 6.682852326920952
lhand -27.903533429157616 17.569896513588542
lfingers 7.12502
lthumb -1.2997873261306916 47.33211657060578
rclavicle -3.616362943433115e-16 5.803562888898701e-16
rhumerus -28.328824439977836 -15.891403987777663 -79.38662866289496
rradius 32.67237492796341
rwrist 2.291523698123891
rhand -17.70281875058113 20.90717553024861
rfingers 7.12502
rthumb 9.188268455518163 -7.6196487588612385
76
root 0.19090496998155837 17.76942543330266 21.848394670883156 -3.4307951036618927 -2.4171663061516897 -0.34596218400501866
lfemur -6.972869938752444 -1.0947163562625257 -22.710027819348685
ltibia 32.98776983164765
lfoot -14.25625026590193 2.2658351006854303
ltoes -8.274435343845868
rfemur -12.263093159422196 3.1672212189070703 21.50896605201951
rtibia 58.19189282468038
rfoot -13.727516175352712 -6.621759805896214
rtoes 4.798281912657363
lowerback 10.27863988878901 0.9228899048624444 -0.6691774484637887
upperback 0.3384677675889644 0.9408824502155378 0.6394119480101562
thorax -5.490139939165072 0.5822959449321401 0.8693944016482045
lowerneck -16.44501138567616 -2.8866163433324172 -1.5525523818540705
upperneck 21.473684992200038 -3.6813181159590793 0.7726498115295775
head 9.620883611260464 -1.798153785048873 0.09275908357185832
lclavicle -3.616362944541773e-16 5.803562888155135e-16
lhumerus -23.877062240590618 2.456797265898638 79.75568494643757
lradius 28.23120111033085
lwrist 6.779486031962975
lhand -28.0627394458028 18.08517602875471
lfingers 7.12502
lthumb -1.5159995157028123 47.73284025588925
rclavicle -3.616362943478834e-16 5.803562888870985e-16
rhumerus -28.434736002824266 -15.841271055388834 -78.9381739572606
rradius 32.74178649587295
rwrist 2.213221938867532
rhand -17.718039136225837 20.883294428531528
rfingers 7.12502
rthumb 9.225684839166252 -7.62311971176117
77
root 0.2337789242055232 17.780225862105734 22.288845316999865 -3.426946778022587 -2.823843207196269 0.055169217340273136
lfemur -5.412417368023114 -1.02152952592722 -23.099600359483397
ltibia 32.7002733589171
lfoot -13.543117822474404 1.6191707985611736
ltoes -11.201587441701658
rfemur -13.738452456080667 3.411125806085898 21.42182956097339
rtibia 57.44206652217598
rfoot -13.594311552242601 -6.479853926503559
rtoes 5.668200276081739
lowerback 10.132827713076217 0.7553602315012731 -1.084121987820777
upperback 0.2782551750135407 0.7363183666466078 0.65439690784551
thorax -5.498395410928401 0.4810304570384241 1.0796581928382785
lowerneck -16.419492631373274 -2.8631750064925363 -1.5653980657924165
upperneck 21.637009517694942 -3.633972019360494 0.708173604838291
head 9.701624836563656 -1.7742754805405172 0.08718970120578641
lclavicle -3.6163629446275375e-16 5.803562888101896e-16
lhumerus -23.4197121114062 2.8026922764648767 79.96062954976385
lradius 28.225241511495557
lwrist 6.856403354331356
lhand -28.25904876540034 18.78468383296699
lfingers 7.12502
lthumb -1.8515397683308727 48.1488224922055
rclavicle -3.616362943459321e-16 5.803562888887398e-16
rhumerus -28.436836394538883 -16.090738644913866 -78.93906513315564
rradius 32.84477426467326
rwrist 2.7474909621837442
rhand -17.67859996281747 20.954610151331433
rfingers 7.12502
rthumb 9.18490693668974 -7.814034657543097
